<svg enable-background="new 0 0 634 212" viewBox="0 0 634 212" xmlns="http://www.w3.org/2000/svg"><g fill="#8cb2d4"><path d="m185.5 210.9c.8 0 1.3-.6 1.3-1.2l-4.7-46.9-4.1.4 6.8 47.2c0 .2.3.5.7.5z"/><path d="m140.3 210.9c-.8 0-1.3-.6-1.3-1.2l4.7-46.9 4.1.4-6.8 47.2c0 .2-.3.5-.7.5z"/><path d="m218.7 210.9c.8 0 1.3-.6 1.3-1.2l-4.7-46.9-4.1.4 6.8 47.2c0 .2.3.5.7.5z"/><path d="m141.7 155.8-8.3-41.2c-1.1-5.6 3.6-10.7 9.6-10.5l16.1.4c5.6.1 10.4 3.8 11.9 9.2l12.2 42.2z"/><path d="m146.7 155.8-8.3-41.2c-1.1-5.6 3.6-10.7 9.6-10.5l16.1.4c5.6.1 10.4 3.8 11.9 9.2l12.2 42.2z"/><path d="m145.1 163.4h61.5c1.9 0 3.4-1.5 3.4-3.4v-.7c0-1.9-1.5-3.4-3.4-3.4h-64.9v4.1c0 1.8 1.5 3.4 3.4 3.4z"/><path d="m175.4 163.4h37.5c1.9 0 3.4-1.5 3.4-3.4v-.7c0-1.9-1.5-3.4-3.4-3.4h-37.5c-1.9 0-3.4 1.5-3.4 3.4v.7c0 1.8 1.5 3.4 3.4 3.4z"/></g><path d="m130.5 158.3v1.3c0 .5-.1.9-.3.9h-48.5c-.2 0-.3-.4-.3-.9v-1.3c0-.5.2-.9.3-.9h48.5c.2.1.3.5.3.9z" fill="#99bfda"/><path d="m130.5 158.3v1.3c0 .5-.1.9-.3.9h-38.5c-.2 0-.3-.4-.3-.9v-1.3c0-.5.1-.9.3-.9h38.5c.2.1.3.5.3.9z" fill="#bad3e5"/><path d="m83.8 160.5h34.4v50.2h-34.4z" fill="#c9dae5"/><path d="m93.4 160.5h34.4v50.2h-34.4z" fill="#e2eaee"/><path d="m126 207.9h-30.7v-46h30.7zm-30.4-.3h30.1v-45.3h-30.1z" fill="#b7d2e4"/><path d="m95.5 177.2h30.4v.3h-30.4z" fill="#b7d2e4"/><path d="m95.5 192.7h30.4v.3h-30.4z" fill="#b7d2e4"/><path d="m113.8 164.9h-5.6c-.3 0-.5-.2-.5-.5s.2-.5.5-.5h5.6c.3 0 .5.2.5.5s-.2.5-.5.5z" fill="#b7d2e4"/><path d="m113.8 180.1h-5.6c-.3 0-.5-.2-.5-.5s.2-.5.5-.5h5.6c.3 0 .5.2.5.5s-.2.5-.5.5z" fill="#b7d2e4"/><path d="m113.8 195.9h-5.6c-.3 0-.5-.2-.5-.5s.2-.5.5-.5h5.6c.3 0 .5.2.5.5s-.2.5-.5.5z" fill="#b7d2e4"/><path d="m223.4 48.5h-1.7c-6.6 0-11.9-5.4-11.9-11.9v-.9c0-6.5 5.4-11.9 11.9-11.9h1.7c6.6 0 11.9 5.4 11.9 11.9v.9c0 6.5-5.3 11.9-11.9 11.9z" fill="#c1d7e8"/><path d="m223.4 47.4h-1.5c-6 0-10.9-4.9-10.9-10.9v-.8c0-6 4.9-10.9 10.9-10.9h1.5c6 0 10.9 4.9 10.9 10.9v.8c-.1 6-5 10.9-10.9 10.9z" fill="#e2eaee"/><g fill="#b7d2e4"><circle cx="222.6" cy="27.1" r=".5"/><path d="m226.3 27.9c.1-.2.5-.4.7-.2.2.1.4.5.2.7-.1.2-.5.4-.7.2s-.3-.5-.2-.7z"/><path d="m230 30.7c.2-.2.6-.1.7.2.2.2.1.6-.2.7-.2.2-.6.1-.7-.2-.1-.2-.1-.5.2-.7z"/><path d="m231.8 35.2c.3 0 .5.2.5.5s-.2.5-.5.5-.5-.2-.5-.5.2-.5.5-.5z"/><path d="m230.9 40.4c.2.2.2.5 0 .8s-.5.2-.8 0-.2-.5 0-.8c.2-.2.5-.2.8 0z"/><path d="m227.5 43.8c.2.2.2.5 0 .8s-.5.2-.8 0-.2-.5 0-.8.6-.2.8 0z"/><path d="m222.1 45.5c0-.3.2-.5.5-.5s.5.2.5.5-.2.5-.5.5-.5-.2-.5-.5z"/><path d="m218.9 27.9c-.1-.2-.5-.4-.7-.2-.2.1-.4.5-.2.7.1.2.5.4.7.2s.3-.5.2-.7z"/><path d="m215.2 30.7c-.2-.2-.6-.1-.7.2-.2.2-.1.6.2.7.2.2.6.1.7-.2.1-.2 0-.5-.2-.7z"/><path d="m213.4 35.2c-.3 0-.5.2-.5.5s.2.5.5.5.5-.2.5-.5-.2-.5-.5-.5z"/><path d="m214.3 40.4c-.2.2-.2.5 0 .8s.5.2.8 0 .2-.5 0-.8c-.2-.2-.6-.2-.8 0z"/><circle cx="218" cy="44.1" r=".5"/><path d="m222.4 35.8c0-.3.2-.5.5-.5s.5.2.5.5-.2.5-.5.5c-.2 0-.5-.2-.5-.5z"/><path d="m222.9 36.2h.1v6.6h-.1z"/><path d="m222.5 34.1h4.4v.4h-4.4z" transform="matrix(.7866 -.6175 .6175 .7866 26.7313 146.0654)"/></g><path d="m348.7 211.1h21.4c1-1.2.6-5.9.5-7.4 0-.3 0-.5 0-.5s-7.3-5.8-8.3-1.4c0 .1-.1.3-.1.4-1.3 4.2-6.9 6.1-10.2 6.6-2.2.5-3 1.6-3.3 2.3z" fill="#213862"/><path d="m407 141.8c-.8 0-36.6 6.7-42.5 14.1-3 3.7-3.4 46-3.4 46s3.7 4.5 11.6 1.9c0 0 5.8-28.9 5.4-37.7-.1-2.4 24.5-.4 29-1.5 4.5-1.2 15.5-10.9 13.1-15.7-2.5-4.9-13.2-7.1-13.2-7.1z" fill="#213862"/><path d="m364.7 131.4s-7.2.1-8.9.8-5.2 2.4-4.2 2.7c.9.3 5.4-.1 6.3 0s2.1 0 2.7 0h3.3z" fill="#f8b27d"/><path d="m354.7 114.7c-.2 1.1-1.4 1.7-2.4 1.2-.8-.4-1.9-.8-2.9-.9-1.4-.2-2.7-.4-3.5-.7-2.2-.8-6.6-4.8-6.3-5.2 1.1-1.5 6.2 1.7 7.1 1.3.9-.3-1.7-2.2-.8-2.9.5-.3 1.6 1.4 2.5 1.6 1.2.2 2.2 2 2.6 2.1.5.1 2 1.2 3 1.9.5.3.8 1 .7 1.6z" fill="#f8b27d"/><path d="m403.4 93.5s-5.5 1.7-10.9 16.6-7.5 15.7-9.4 16.3-19.2 4-19.2 4v4.4h26.6s10-9.5 13-15.9c2.9-6.3-.1-25.4-.1-25.4z" fill="#d86239"/><path d="m339.3 211.1h21.4c1-1.2.6-5.9.5-7.4 0-.3 0-.5 0-.5s-7.3-5.8-8.3-1.4c0 .1-.1.3-.1.4-1.3 4.2-6.9 6.1-10.2 6.6-2.2.5-3 1.6-3.3 2.3z" fill="#1a3151"/><path d="m396.5 141.8c-.8 0-36.6 6.7-42.5 14.1-3 3.7-3.4 46-3.4 46s3.7 4.5 11.6 1.9c0 0 5.8-28.9 5.4-37.7-.1-2.4 24.5-.4 29-1.5 4.5-1.2 15.5-10.9 13.1-15.7-2.6-4.9-13.2-7.1-13.2-7.1z" fill="#2b478b"/><path d="m398.7 98.2c2.6-.2 5.3-.9 7.6-1.7 2.9-.9 5.3-2.3 3.8-5-1.4-2.5-3.7-10.9-3.5-15.5l-5.4 4.4-3.7 3s0 4.8.4 7.8c.1.6.2 1.2.3 1.8.1.5-.2 1-.6 1.3 0 0-.1 0-.1.1-1.9 1.2-1 4 1.2 3.8z" fill="#f8b27d"/><path d="m397.4 85.7s-.2-2.4.1 0c3.3-.5 6.4-3.2 6.4-3.2-1.7-.5-2.3-2.3-3.5-2.1z" fill="#eb975d"/><path d="m394.4 83.2s12.6 2.1 13.8-5.8 3.6-12.9-4.4-14.6-10 1.1-11.1 3.6c-1 2.6-1.6 16.1 1.7 16.8z" fill="#f8b27d"/><path d="m390.9 63c-.5 1.9.9 4.2 3.4 5 3.6 1.1 2.8 5.6 4.5 5.5s2.3-2.6 3.7-.6c1.2 1.7-1 3.7-.9 4.7.3 1.6 2.8 4.9 5 4.7s6.5-10.9 5.6-14.2-4.2-6.8-7.4-7.3-7.6.9-8.7.9c-1-.1-4.9.3-5.2 1.3z" fill="#2b478b"/><path d="m417.5 106c-1.8-7.4-4.1-16.6-7.5-16.6-5.8 0-14.2 1.6-17.6 9.9-2.5 6.1-5.8 41.5-2.1 44 8.6 5.7 28.5 17.5 32 5.5 3.2-11-1.6-30-4.8-42.8z" fill="#f2753d"/><path d="m406.1 97.2c-1.7-4.3-7-5.8-10.7-3-2 1.5-4.4 3.7-7.3 6.8-10.9 11.6-13.1 11.5-15.1 11.3-1.8-.2-16.9 0-20.4-.7-.6-.1-1.2.1-1.6.6-.2.3-.4.6-.6.9-.7 1.4-.3 2.4-.3 2.4-.7-.4 10.5 4.6 13.5 5.6 4.8 1.6 9.1 2.3 11.8 3.2.8.2 1.6.2 2.3 0 4-1.4 17.3-6.7 28.2-15.7 2.8-2.5 1.7-7.4.2-11.4z" fill="#f2753d"/><path d="m410.5 89.5-1.3-6s-11.8 4-13.8 10.7c0 0 9.2-4.6 15.1-4.7z" fill="#fff"/><path d="m439.2 210.9c.8 0 1.3-.6 1.2-1.2l-4.4-44.4-3.9.4 6.4 44.6c0 .3.3.6.7.6z" fill="#8cb2d4"/><path d="m416.3 210.9c.8 0 1.3-.6 1.2-1.2l-4.4-44.4-3.9.4 6.4 44.6c0 .3.3.6.7.6z" fill="#8cb2d4"/><path d="m373.4 210.9c-.8 0-1.3-.6-1.2-1.2l4.4-44.4 3.9.4-6.4 44.6c-.1.3-.4.6-.7.6z" fill="#73a0cb"/><path d="m437.9 159 4.2-37.1c.5-5.3-1.2-10.6-8.9-11l-13.6-.8c-8-.3-11.7 6.4-12.7 11.5l-8 40.7z" fill="#8cb2d4"/><path d="m434.4 166h-57.8c-1.9 0-3.4-1.5-3.4-3.4v-.3c0-1.9 1.5-3.4 3.4-3.4h61.2v3.7c.1 1.8-1.5 3.4-3.4 3.4z" fill="#73a0cb"/><path d="m434.4 166h-32.1c-1.9 0-3.4-1.5-3.4-3.4v-.3c0-1.9 1.5-3.4 3.4-3.4h35.5v3.7c.1 1.8-1.5 3.4-3.4 3.4z" fill="#8cb2d4"/><path d="m184.9 94.4s-2.1 1.8-2.6 6.6c-.4 3.6 2.1 31.5 4 33.7 5.3 6.2 11.9 3.6 14.5 4.6l2.4-2.2s-8.6-6.3-9.2-8.4c-2.6-8.1-1-31.3-9.1-34.3z" fill="#f3ddbf"/><path d="m183.3 71.7s.1-5.1-6.6-6.1-8.6.6-9.8 2.3c-1.1 1.7-3.3 8.7-3.1 11.5s7.9 6.2 7.8 7.9c-.1 1.6 11.7-15.6 11.7-15.6z" fill="#163660"/><path d="m214.6 206.6c-.2 1.7 2.1 2.2 4.9 2.5 2.7.2 1.9.8 5.6 1.6s5.3-.2 5.6-.7c.3-.4-1.5-1.2-3.3-2.1-.2-.1-.5-.2-.7-.3-2.1-1-3.2-3-4.8-4.8-1.5-1.7-2.8-7.2-2.8-7.2l-5.1-1.3s1.3 4.9 1.7 7c.2 1.2-.2 2.6-.6 3.6-.2.5-.4 1.1-.5 1.7z" fill="#f8b27d"/><path d="m219.5 209c2.7.2 1.9.8 5.6 1.6s5.3-.2 5.6-.7c.3-.4-1.5-1.2-3.3-2.1s-2.7.8-5.7-.1c-2.5-.8-4.8-2.4-6.5-2.9-.2.6-.5 1.1-.5 1.7-.3 1.8 2 2.3 4.8 2.5z" fill="#213862"/><path d="m176.6 136.1s33.9 3.5 39.5 8.7 4.6 53.6 4.6 53.6c-.9.9-1.5.9-2.9.8-1.3-.1-4-1.2-4-1.2s-7.3-23.8-7.4-29.3-1.2-14.8-3.6-15.4-29.8 2.5-32.8-6.1c-3-8.7 2-15.8 2-15.8z" fill="#d86239"/><path d="m160.8 144.9c1.5 1 4.1 2.5 8.5 2.6 7.9.3 17.7-.6 19.6-2.5.5-.5.8-1.2.8-2.2.2-3-1.2-8-2.2-12.1-.6-2.7-1.1-5-.7-6.2 1.1-3.6 4.4-10.9 4.7-13.3s-2.6-15.3-6.5-16.9c-4-1.6-19.2 0-19.2 0-6 1.2-6.2 13.9-4.2 24.8.1.3.1.6.2.8 1.9 11.1-5.1 22.2-1 25z" fill="#f3ddbf"/><path d="m180.5 96.8c-.1.7-2 1.8-6.1.8-3.9-1-4.4-2.3-4.4-3.2 0-1 1.7-2.3 1.7-8.5l.5.1 7.9 1.6s-.2 2.5-.2 4.8c0 1.9.8 3.2.6 4.4z" fill="#f8b27d"/><path d="m180.1 87.5s-.2 2.5-.2 4.8c-4.4-.1-6.8-4.2-7.7-6.4z" fill="#eb975d"/><path d="m181.5 89.8s-10.4.2-10.5-6.3c0-6.5-1.4-10.9 5.3-11.3s8 2.1 8.5 4.3c.6 2.1-.6 13-3.3 13.3z" fill="#f8b27d"/><path d="m181.1 72s-2.9 7.6-7.2 8.8-6.3-.1-6.3-.1 3.4-2.7 4.1-7.3c0 0 7.3-5 9.4-1.4z" fill="#163660"/><path d="m180.4 72.6s2.1 1.7 2.7 3.4c.5 1.7.8 5.1 1.8 5 0 0 2.2-5.2-.3-8.1-2.6-3.2-4.2-.3-4.2-.3z" fill="#163660"/><path d="m189.1 208c0 1.7 2.4 2 5.1 1.9s2 .6 5.8.9c3.8.4 5.2-.8 5.5-1.3.2-.5-1.6-1.1-3.5-1.7-.2-.1-.5-.2-.7-.2-2.2-.8-3.5-2.6-5.2-4.2s2-9.1 2-9.1l-4.8-2.4s-.9 5.4-2.1 10.1c-.3 1.2-1.3 3.2-1.6 4.3-.3.5-.5 1.1-.5 1.7z" fill="#f8b27d"/><path d="m160.9 143.6c1.5 1 3.9 3.8 8.3 3.9 7.2-1.6 15.5-3.6 20.4-4.7.2-3-1.2-8-2.2-12.1-5.7 1.8-14.2-4.2-17.1-6.6-3-2.5-2.9-10.7-2.9-10.7l-6.1 5.8c.1.3.1.6.2.8 2.2 11-4.6 20.8-.6 23.6z" fill="#eca"/><path d="m194.2 209.9c2.8-.1 2 .6 5.8.9 3.8.4 5.2-.8 5.5-1.3.2-.5-1.6-1.1-3.5-1.7s-2.6 1.1-5.7.5c-2.5-.5-5.1-1.8-6.8-2.2-.2.6-.3 1.2-.3 1.8-.1 1.8 2.3 2.1 5 2z" fill="#213862"/><path d="m169.3 138.2c8.6-.2 34.3 1.8 39.3 5.5 6.1 4.6-11.3 54.2-11.3 54.2s-2 .2-2.7.1c-2.8-.3-3.9-1.1-3.9-1.1s.1-29.2 2.1-34.8c1.9-5.2 3-7 .7-7.3s-31.7 3.4-34.1-5.4c-1.9-6.9.9-13.3.9-13.3s1 2.3 9 2.1z" fill="#f2753d"/><path d="m165.6 94.4s-6 .5-6.4 5.2c-.4 3.6-3 29.1-1.1 31.3 5.3 6.2 22.9 7.6 25.4 8.5l.7-2.9s-18.8-9.5-18.5-11.6c.3-2.2 5.6-31.3-.1-30.5z" fill="#f3ddbf"/><path d="m170.2 68.1s.4-2.7-3.4-3.4-3.8 7.3-4.2 9.3.6 3.1 2.1 3.2c1.4.1 5.5-9.1 5.5-9.1z" fill="#163660"/><path d="m184.4 136.3s5.4-1.5 6.6-1.2 5.6 3.2 5 4-4.5-.5-6.2-.2c-1.8.2-3.1 1.1-4.4.9s-2.6-.7-2.6-.7z" fill="#f8b27d"/><path d="m184.4 136.3s2.6-1.3 3.4-2.1c.1-.1.2-.1.3 0 .2.3.4.9-.5 1.5-1.3 1-3.2.6-3.2.6z" fill="#f8b27d"/><path d="m203.2 137s5.6.3 6.6 1.1 4.3 4.9 3.4 5.4c-.8.5-4.1-1.9-5.8-2.2s-3.3 0-4.5-.6-2.2-1.5-2.2-1.5z" fill="#f8b27d"/><path d="m313.4 211.4c.5 0 .8-.3.8-.7l-1.1-47.7-3.2-.4 2.8 48.1c-.1.3.3.7.7.7z" fill="#b3d2e6"/><path d="m332.3 211.4c.5 0 .8-.3.8-.7l-1.1-47.7-3.2-.4 2.8 48.1c-.1.3.2.7.7.7z" fill="#94bfdb"/><path d="m280.1 211.4c-.5 0-.8-.3-.8-.7l1.1-47.7 3.2-.4-2.8 48.1c.1.3-.3.7-.7.7z" fill="#b3d2e6"/><path d="m334.4 160v-32.7c0-5.8-4.7-10.4-10.4-10.4h-23.5c-5.8 0-10.4 4.7-10.4 10.4v33.9z" fill="#b3d2e6"/><path d="m285.8 165.1h44.7c2.2 0 3.9-1.8 3.9-3.9v-1.2h-48.6z" fill="#94bfdb"/><path d="m280 165.1h35.1c1.1 0 2-.9 2-2v-1.2c0-1.1-.9-2-2-2h-35.1c-1.1 0-2 .9-2 2v1.2c0 1.1.9 2 2 2z" fill="#b3d2e6"/><path d="m281.7 151.8c3.4 5.9 7.6 8.1 7.6 8.1h17.7c0 .1-27.9-12.6-25.3-8.1z" fill="#213862"/><path d="m295.3 197.2c.5.5.5 1.1.3 1.8-.4 1.2-1.8 2.5-3.4 3.8-.2.2-.4.3-.5.5 0 0-.1.1-.1.1s-.1.1-.1.1c-1.5 1.4-.9 1.7-3.6 4.5-3.1 3.2-5.2 3.3-5.8 3-.5-.2.5-1.9 1.7-3.9.1-.1.1-.2.2-.3.1-.2.3-.5.5-.8 1.4-2.3 1-3.4.7-6.8-.3-2.8-4.3-15.6-4.3-15.6l5.9-1s1.8 10.2 3.7 11.7c1 .8 2.2.9 3.2 1.5.1 0 .1.1.2.1.3.4.9.8 1.4 1.3z" fill="#bf9279"/><path d="m295.3 197.2c.5.5.5 1.1.3 1.8-.5 1.2-1.9 2.4-3.4 3.8-.2.2-.4.3-.5.5 0 0-.1.1-.1.1s-.1.1-.1.1c-1.5 1.4-.9 1.7-3.6 4.5-3.1 3.2-5.2 3.3-5.8 3-.5-.2.5-1.9 1.7-3.9.6-.2 3.4-1.4 5.5-4.1 1.9-2.4 3.1-5.4 4.4-7.2.1 0 .1.1.2.1.3.4.9.8 1.4 1.3z" fill="#213862"/><path d="m247.6 193.6c-.4 1.8-3 1.5-5.9.8s-2.2.1-6.4-.3c-4.1-.5-5.4-2-5.5-2.6s1.9-.7 4.1-1c.3 0 .6-.1.8-.1 2.5-.3 4.3-1.9 6.5-3.2 2.1-1.2 5.3-6.3 5.3-6.3l5.7.4s-3 4.5-4.1 6.5c-.7 1.2-.6 2.7-.6 3.9.2.6.2 1.2.1 1.9z" fill="#bf9279"/><path d="m241.7 194.4c-2.9-.7-2.2.1-6.4-.3-4.1-.5-5.4-2-5.5-2.6s1.9-.7 4.1-1 2.5 1.8 5.9 1.8c2.8.1 5.8-.7 7.7-.7 0 .6.1 1.3 0 1.9-.3 1.9-2.9 1.6-5.8.9z" fill="#213862"/><path d="m269.3 157.3 5.3 14.3 6.9 18.6s1.9.2 3.7-.3c1.7-.5 3.6-1.7 3.6-1.7s-1.9-20-5.5-31.5c-.9-2.9-2-5.3-3.1-6.7-5.6-6.6-10.9 7.3-10.9 7.3z" fill="#213862"/><path d="m274.7 134.6c3.5-1.1 13.4.3 23.3 2.3l2.1-3.4 21.5-1.7s7.1 15.7 3.2 25.8c-.6 1.5-1.7 2.4-3.6 2.4h-.3s-12.8 0-17 0c-10.7 0-22.6-7.4-24.2-7.7-2.5-.5-5.7 3.4-8.3 8.7-2.5 5.3-21.6 24.7-21.6 24.7s-3.3 0-4.6-.5c-1.4-.5-2-1.2-2-1.2s23.7-46.9 31.5-49.4z" fill="#2b478b"/><path d="m300.3 103.8c7.7 4.2 23.2 13 23.3 12.9 0 0 5.7 2.2 9 0 5.4-3.6 8.3-13.2-1.6-21.5-4.9-4.1-8.4-5.2-9-11.8-.3-3.6-5.2-15.4-13.3-14.3-.7.1-5.6-.7-7.6 1.7-3.6 4.2-12.3 31.4-.8 33z" fill="#213862"/><path d="m306.7 100.2s3.8 1.3 6.3.2c2.4-1.1 4.2-5 4.2-5-1.1-.1-2.3-1-3.2-7.2l-.5.2-7.8 2.8s.6 2.5.9 4.9c.3 1.9.5 3.8.1 4.1z" fill="#bf9279"/><path d="m305.7 91.1s.6 2.5.9 4.9c4.5-.8 6.2-5.3 6.9-7.7z" fill="#6d5346"/><path d="m304.5 93.6s10.7-1.4 9.7-8.1c-1-6.6-.3-11.3-7.1-10.6-6.9.6-7.8 3.4-8 5.7s2.7 13.2 5.4 13z" fill="#bf9279"/><path d="m299.5 77s6.8 5.9 11.5 6.3 6.4-1 6.4-1-2.7-2.3-4.4-5.9c-.5-1.1-1.5-1.8-2.7-1.9-3.3-.4-9.6-.5-10.8 2.5z" fill="#213862"/><path d="m303.7 76.4s-2.3 2.2-3 3.8-.9 5.4-.4 6.9c0 0-3.6-6.9-1.5-10.3 2.2-3.5 4.9-.4 4.9-.4z" fill="#213862"/><path d="m297.7 115.9c.3 21.6.1 17.1 2.5 19.1.6.5 2.2.8 4.3.9 6.6.4 18.2-.6 18.7-1.9 1.5-4.2.5-5.5 1.7-12 .1-.7.3-1.4.5-2.2 1.1-4.4 2.1-6-1.7-13.1-3.4-6.5-7-11.7-7.3-11.5-9 5.3-9.7.8-9.7.8s-9.2 9.4-9 19.9z" fill="#fff"/><path d="m274.6 171.5 6.9 18.6s1.9.2 3.7-.3c1.7-.5 3.6-1.7 3.6-1.7s-1.9-20-5.5-31.5z" fill="#2b478b"/><path d="m306.6 96s-9.3 1.6-10.4 5.6-7.5 27.5-7.5 27.5 7.5 2.1 9.7 0c2.2-2.2 4.8-21.5 4.8-21.5z" fill="#fff"/><path d="m304.4 136c6.6.4 18.2-.6 18.7-1.9 1.5-4.2.5-5.5 1.7-12l-3.2-9s.5 10-2.4 12.6c-3 2.6-12.1 5.1-13.5 7.3-.7 1-1.1 2.1-1.3 3z" fill="#eff2f4"/><path d="m312 131.7s-6.5-1.4-7.6-.9-3.6 2.7-4 3.4 2.3-.6 3.2-.8c.6-.1 2 .4 2.8.6 3.1 1 5 .5 5 .5z" fill="#bf9279"/><path d="m316.4 95.2s8.8.5 11.8 4.8c4.3 6 12.7 31.3 7.9 34.7-5.5 3.8-24.9 1-24.9 1s-.6-3 .2-4.5c.9-1.5 15.5-3.8 16.2-4.5s-8.4-13.2-8.4-15.2-2.8-16.3-2.8-16.3z" fill="#fff"/><path d="m304.1 132.7s-1.4 1.8-1.8 2-.7.2-.7.2l.9-1.7z" fill="#bf9279"/><path d="m304.4 130.9-4 1.9s.2.3.7.2c.5 0 1.7-.5 1.7-.5z" fill="#bf9279"/><path d="m302.3 137.4h-31.4l-9.5-23.6h31.4z" fill="#b3b3b3"/><path d="m270.5 136.4h41.5v1h-41.1z" fill="#d86239"/><path d="m159.9 139.3h222.9c1.2 0 2.1-.9 2.1-2.1v-.2c0-1.2-.9-2.1-2.1-2.1h-222.9c-1.2 0-2.1.9-2.1 2.1v.2c0 1.1 1 2.1 2.1 2.1z" fill="#172e4f"/><path d="m387 211.2c.7-.1 1.1-.6 1-1.2l-10.8-72.8-3.9.1 12.7 73.2c0 .4.5.8 1 .7z" fill="#172e4f"/><path d="m154.7 211.2c-.7-.1-1.1-.6-1-1.2l10.8-72.8 3.9.1-12.7 73.2c-.1.4-.5.8-1 .7z" fill="#172e4f"/><path d="m179.6 211.2c-.7-.1-1.1-.6-1-1.2l10.8-72.8 3.9.1-12.7 73.2c-.1.4-.5.8-1 .7z" fill="#172e4f"/><path d="m91.3 22.6c-.7-17.7 14-22.6 29.2-22.6s31.8.9 33.2 24.5c.9 15.1-7.1 24.5-30.4 24.5-7.8 0-9.9.8-14.6-1.4l-10.6 9.4c-.2.2-.6 0-.5-.3l5.2-13.1c-5-4.7-11.2-13.4-11.5-21z" fill="#e2ebee"/><path d="m447.9 209.6c-.1 2-3 2-6.1 1.6-3.2-.4-2.3.4-6.8.5s-6-1.4-6.2-2.1c-.2-.6 2-1 4.3-1.6.3-.1.6-.1.9-.2 2.6-.7 4.3-2.6 6.5-4.3 2.1-1.6 4.8-7.4 4.8-7.4l6.1-.3s-2.6 5.2-3.5 7.4c-.6 1.3-.3 2.9-.1 4.2 0 .8.1 1.5.1 2.2z" fill="#f8b27d"/><path d="m441.7 211.2c-3.2-.4-2.3.4-6.8.5s-6-1.4-6.2-2.1c-.2-.6 2-1 4.3-1.6s2.9 1.5 6.5 1.2c3-.3 6-1.6 8.1-1.8.1.7.3 1.4.2 2.1-.1 2.1-2.9 2.1-6.1 1.7z" fill="#213862"/><path d="m490 210c-.1 2-3 2-6.1 1.6s-2.3.4-6.8.5-6-1.4-6.2-2 2-1 4.3-1.6c.3-.1.6-.1.9-.2 2.6-.7 4.3-2.6 6.5-4.3 2.1-1.6 0-11.1 0-11.1l6.7-.6s-.3 8-.3 11.7c0 1.4.7 2.8.9 4.1 0 .5.1 1.2.1 1.9z" fill="#f8b27d"/><path d="m483.9 211.7c-3.2-.4-2.3.4-6.8.5s-6-1.4-6.2-2 2-1 4.3-1.6 2.9 1.5 6.5 1.2c3-.3 6-1.6 8.1-1.8.1.7.3 1.4.2 2.1-.1 1.9-3 1.9-6.1 1.6z" fill="#213862"/><path d="m481 33.2c11-4.2 10.7 13 10.5 16.8s-2 9 7.6 10.1c12.2 1.5-3.6 27-3.6 27 .3-3.1-13.8-19.1-21.1-23.9-1.8-2.6-2.4-7.3-2.5-7.6.3 3.7 2.1 5.2 2.6 6.4-3.3-3.1-5-10-4.1-16.5-1.1-4.8.5-7 2-8.1.7-1.8 1.5-3 2.4-3.5 1.5-.9 3.4-1 4.6-.9" fill="#a9453d"/><path d="m474.8 63.5s3.5 1.9 6.2 1.1c2.5-.7 4.2-4 4.1-4-1.1-.2-1.4-1.7-1.4-8l-.5.1-8.1 1.6s.2 2.6.2 5c.1 2-.1 3.9-.5 4.2z" fill="#f8b27d"/><path d="m475.2 54.3s.2 2.6.2 5c4.6-.1 7-4.3 8-6.6z" fill="#eb975d"/><path d="m442 199.4c-.4 1.2.5 2.5 1.8 2.6l3.2.1 3.4.1c.8 0 1.6-.3 2.2-1 2.7-3.3 11-14.3 16-30.3.1-.4.3-.9.5-1.4 3.3-9.7 10.2-21.8 13.8-32.8.6-1.8 1.1-3.4 1.6-4.9.1-.5.3-1 .4-1.5 2.7-9.3 3.4-15.4 4.1-21.9l-26.1.2c-.1.1-5.6 42.9-20.9 90.8z" fill="#2a4e94"/><path d="m466.5 93.7c.1 12.4-1.8 17.8-1.8 17.8s11.2 5.7 24.5 1.5c.2-.1 11-2.5 11-2.5-.2-.5-2.2-8.9-2.4-9.3-2.8-6-4.9-8.7-5.3-10.5-.6-3.5-.6-7.1-.3-10.4.8-8.9 3.2-16.4 3.2-16.4-3.6-.8-7-2.3-10.8-3.7-.9 1.1-3.5 2.2-5.8 2.2-2.6-.1-3.5-1.2-3.4-2.4-2.8 1.6-5.1 3.1-5.1 3.1-2.4 4.2-7.3 8.2-7.6 14.6-.1 1.4 3.8 15.7 3.8 16z" fill="#fff"/><path d="m488.9 95.1c1.1 1.6 3.3 11.4 8.8 12.7-2.8-7-4.9-10.1-5.3-12.2-.6-4-.6-8.2-.3-12.1-1.8-3.2-3.2-5.4-3.2-5.4-.1-.5-2.9-9-3.8-1.4-.8 7.6 2.6 16.6 3.8 18.4z" fill="#5f9aa8"/><path d="m473.6 56.6s10.8.2 10.8-6.5 1.4-11.2-5.5-11.6-8.2 2.2-8.8 4.4c-.5 2.2.7 13.5 3.5 13.7z" fill="#f8b27d"/><path d="m474 38.3s3 7.9 7.5 9c4.5 1.2 6.5 0 6.5 0s-3.5-2.8-4.2-7.6c0 0-7.5-5.2-9.8-1.4z" fill="#a9453d"/><path d="m474.8 38.9s-2.2 1.8-2.7 3.5-.8 5.2-1.8 5.1c0 0-2.2-5.4.3-8.4 2.5-3.2 4.2-.2 4.2-.2z" fill="#a9453d"/><path d="m456.7 102.4-5.1 15.5 2.9 1.2 8.4-13.8z" fill="#f8b27d"/><path d="m470.4 62s-6 2.4-7.8 6.1-4.4 28.7-5.4 31.2-1.8 4.6-1.8 4.6 3 2.6 6.1 2.7c3 .2 8.9-44.6 8.9-44.6z" fill="#f2753d"/><path d="m475.4 59.8s-6.2 15.4-6.4 18.5-.7 51-.7 51 .4 2.2-3.9 1.3c-4.2-.9-5.3-1.8-5.3-1.8s4-29.6 2.9-39.8 8.4-27 8.4-27z" fill="#f2753d"/><path d="m447 202.1 3.7.1c.6 0 1.3-.3 1.7-.8 2.5-3 11-14.1 16.2-30.5.1-.4.3-.9.5-1.4 3.3-9.7 10.2-21.8 13.8-32.8.6-1.8 1.1-3.4 1.6-4.9.1-.5.3-1 .4-1.5l-3.9-2.9s-11.6 18.7-15.1 36.3c-3.2 15.4-15.7 33.9-18.9 38.4z" fill="#1d3d70"/><path d="m480.5 165.5c-.1 8.1.3 26.2 1.3 35 .1.8.8 1.4 1.6 1.4h2.7 2.6c.5 0 .9-.4 1-.9 2.7-13.8 4.7-25.3 6.1-35.2 1.2-8.3 2.2-15.4 3.1-21.5.8-6.2 1.4-11.3 1.6-15.7 0-.7.1-1.3.1-2s0-1.3 0-1.9l-22.6-2.2c.2 15 2.6 38 2.5 43z" fill="#2a4e94"/><path d="m486.2 201.9h2.4c.6 0 1.1-.4 1.2-1 2.7-13.7 4.6-25.1 6-35 1.2-8.3 2.2-15.4 3.1-21.5.8-6.2 1.4-11.3 1.6-15.7l-8.3 4.9s5.3 1.9 3.3 16c-2 14-6.5 50.3-9.3 52.3z" fill="#1d3d70"/><path d="m485.1 128.5s1.6 5.8 7.1 5 13.3-4 13.3-4-2.4-7.4-5.3-17.2c-3.5-11.8-7.9-27.1-10-36.7-.6-2.7-1-4.9-1.1-6.6l-4.6-8.9s-6.7 12-7.1 15.9c-.3 3.9 7.7 52.5 7.7 52.5z" fill="#f2753d"/><path d="m490.6 77.7-4.1-15.7s5.2 1.1 9 3c0 0 2.9 1.4 4.4 8.5 0 0 1.6 17.1-1.9 23.3 0 0 4.6 20.2-3.4 20.2h-2s-3.9-27.1 0-26.6z" fill="#f8b27d"/><path d="m487.2 83.4c-1 7.3-1.9 21.7 10.2 31.6 0 0 .1.1.1.1-1.3-14.4-2.8-33-3-44.6-3.1 3.7-6.8 8.8-7.3 12.9z" fill="#d86239"/><path d="m452.3 117.5s-4.6 2.6-5.3 4.5c-.6 2-.2 6.1.5 6s1.8-4.4 2.5-4.7c.6-.3 1.5-1.2 1.5-.6s-.6 1.9-.3 2.1 1.3-1.7 2-2.1 1-3.4 1.6-4.2-2.5-1-2.5-1z" fill="#f8b27d"/><path d="m540.1 210.4s.4-3.4 1.5-5.5c1-2.1 7.6-.8 7.6-.8s1.3 1.1 1.6 6.4z" fill="#213862"/><path d="m517.9 210.4c1.5-.9.7-7.9.7-7.9s-7.2-5.7-8.1-1.3-6.8 6.4-10.1 6.9c-2.3.4-3 1.6-3.2 2.4z" fill="#213862"/><path d="m532.7 159.5c-.3 1.6-.5 2.9-.5 3.9-.7 13-10.9 42.6-12.8 43.3-2.8 1.1-7.3-1.2-9.6-1.9-1-.3-1.6-1.3-1.4-2.3 5.1-23.4 7-57 7.6-76.9.3-10 2.1-17 2.1-17s25-6.7 25.2 1.8c0 7.5-8.4 36.8-10.6 49.1z" fill="#223f7a"/><path d="m532.7 159.5-16.7-33.9c.3-10 2.1-16.9 2.1-16.9s25-6.7 25.2 1.8c0 7.4-8.4 36.7-10.6 49z" fill="#213862"/><path d="m527.1 110.4 13.2 95.8s5.8 1.4 10.3.3c0 0 3.9-51 3.5-63.3-.3-12.3 2.8-33-.7-35.2-3.4-2.3-26.3 2.4-26.3 2.4z" fill="#223f7a"/><path d="m556.1 108.8c.1.9-.5 1.7-1.3 1.9-1.8.5-4 .9-8.1 1.8-3.8.8-9 1.5-15.4 1.6-10.1.1-14-3.4-14-3.4-.4 0 .2-2.1.8-12.2.2-3.4.4-7.7.5-13.2.1-4.9.2-10.8.2-17.7 0-8.3 12.9-17.3 13.2-17.3 0 1.2 1.9 3.4 4.8 3.6 3.5.2 7.7-1.5 7.7-3.5 0 0 6.3 10 8.5 20.7 1.2 5.3.8 5.1 3.1 37.7z" fill="#b3cfe4"/><path d="m532.1 50.2s-12-.1-14.9 4-9.2 25.8-5.9 33.1 9.5-3 12.9-7.4c3.4-4.5 7.9-29.7 7.9-29.7z" fill="#b3cfe4"/><path d="m532 48.4v1.2s-.3 3.9 4.4 4.5 8.3-.7 8.2-3.7c-.4-2.3-.8-4.7-.9-6.6 0-.7 0-1.5.2-2.3l-9.3-.2-2.7.5z" fill="#876249"/><path d="m531.9 41.6v6.7c1 .5 2.1.7 3.3.7 4.3 0 7-3.1 8.5-5.4 0-.7 0-1.5.2-2.3l-9.3-.2z" fill="#6b4f3f"/><path d="m544.6 39.9c-1.1 5.8-8.5 5.6-11.8 5.2-.9-.1-1.5-.2-1.5-.2-1-.3-1.6-1.9-1.9-4-.5-4.2.1-10.3.8-11.9 1.1-2.4 3.1-4.9 10.6-3.1 7.7 1.9 5.2 6.6 3.8 14z" fill="#876249"/><path d="m519.8 66.4s-4.7 10.3-4.5 13.3c0 0 2.3-.1 4.5.6 3.6 1.1 0-13.9 0-13.9z" fill="#97b9d8"/><path d="m528.1 23.5s3.3-.2 7.2-2c3.2-1.4 7.2.1 8.5.8 0-.2.3-.4.3.2.1 0 .1.1.1.1s.8 0 .7.2c4.9 2.4 5.4 10.2 3.8 12-1.9 2.2-4.8 7.1-4.8 7.1s-.2-1.2.1-3.1-1.3-1.9-3.4-2.8-.3-3.3-2.2-4.8c-1.8-1.5-8.5-.6-8.4-1.7-2.6-.8-1.9-5.7-1.9-6z" fill="#213862"/><path d="m546.2 85.7c-2 7.9-23.2 11.9-28 12.8.2-3.4.4-7.7.5-13.2z" fill="#97b9d8"/><path d="m541.5 88.2c.2 0 4.7-.7 5.5-1.1s4.5-5.7 2.1-7-8.9 4-8.9 4z" fill="#876249"/><path d="m514 89.8s17.5.9 29.2-1.6c0 0 .3-3.4-3.4-4.9 0 0-18.2-3.9-22.6-2.8s-3.2 9.3-3.2 9.3z" fill="#b3cfe4"/><path d="m554.1 76.1c-3.6 4.4-8.4 7.9-13.6 8.8 0-.1-1.6-2.4-1.3-5.8.1-1.6.7-3.4 1.9-5.3.4-.6.7-1.3 1-2.1 2.8-7.3 2.4-21.3 2.4-21.3s12.1 1.3 15.9 6.7c2.4 3.2-.5 12.1-6.3 19z" fill="#b3cfe4"/><path d="m532.9 45.1c-.9-.1-1.5-.2-1.5-.2-1-.3-1.6-1.9-1.9-4 1.9.5 2.8 2 3.2 2.6.2.3.2.9.2 1.6z" fill="#6b4f3f"/><path d="m528 48.4s-4.2-6.9-.9-7.2 4.6 1.9 5 2.7c.5.8-.1 4.5-.1 4.5z" fill="#876249"/><path d="m543.9 78.8c-.1.9-.4 1.7-.7 2.4-1 2.3-2.7 3.7-2.7 3.7-10.9-4.9-13-21.7-13.4-31-.2-3.7 0-6.2 0-6.2 4.9-1.6 6.3 1.2 6.3 1.2s5.8 13.8 8.8 22.7c1.1 3.4 1.9 6.2 1.7 7.2z" fill="#b3cfe4"/><path d="m554.1 76.1c-3.6 4.4-8.4 7.9-13.6 8.8-10.9-4.9-13-21.7-13.4-31 0 0 5.1 18.6 12.1 25.1 1.3 1.2 2.6 2 4 2.2 0 0 8.8-2.5 10.7-4.8.1-.2.2-.3.2-.3z" fill="#97b9d8"/><path d="m579.3 170.5s-7-8.1-.4-13.3c0 0 4.8-2.9 8.7-2.6 0 0-5.5 9.2-3.7 10.1s5.4-10.7 5.4-10.7 10.8-1.1 14.3.6c0 0-9.3 7.6-7.3 8s12-7 12-7 10.1 1.7 9.5 7.9c-.5 6.1-4 8.1-5.5 7.9s-10.5-3.6-10.7-2.3c-.2 1.2 5.2 5.3 9 5.5 0 0-7.1 7.8-11.8 5.6-4.7-2.3-5.1-5.9-8.1-7.2s-5.5-1.3-4.2 0c1.2 1.4 6.5 2.7 8.2 5.7s3.2 5-1.7 4.2-12.8-4.3-13.2-8.4c-.5-4-.5-4-.5-4z" fill="#25a486"/><path d="m612.7 163.7s-27.4-1.1-33.5 6.8c0 0-1.3 4-5.5 7.7l-.6 1.8s4.8-5 6.5-5.3c0-.1-2.6-9.8 33.1-11z" fill="#25a486"/><path d="m573.8 178.1s-5.9 4.4-6.3 12.1l1.1.1s1.9-8 5.3-11.2c3.3-3.1-.1-1-.1-1z" fill="#25a58e"/><path d="m555 160.3s11-6.2 5.9-14.6c0 0-4.1-5.2-8.5-6.5 0 0 2.4 12.5 0 12.8s-1.6-14.1-1.6-14.1-11.6-5.6-16.2-5.2c0 0 7.2 12.2 4.9 11.9s-10.6-12.6-10.6-12.6-11.9-2.2-13.8 4.9 1.2 10.6 3 11.1 13.1.3 12.8 1.8-8 3.8-12.2 2.5c0 0 4.7 11.6 10.9 11.1s8.1-4.4 11.9-4.7 6.6.7 4.7 1.8c-1.9 1-8.4.3-11.5 3s-5.6 4.2.2 5.4 16.1.4 18.1-4c2-4.6 2-4.6 2-4.6z" fill="#25a486"/><path d="m520.5 139.1s31 10 34.5 21.2c0 0-.2 5 3 10.8v2.2s-3.2-7.5-5-8.6c-.1 0 6.8-9.7-32.5-25.6z" fill="#25a486"/><path d="m557.9 171s4.8 7.2 2 16.1l-1.2-.3s1.2-9.7-1.3-14.6.5-1.2.5-1.2z" fill="#25a486"/><path d="m572.5 151.7s-14.6-8.2-7.8-19.2c0 0 5.4-6.8 11.3-8.6 0 0-3.1 16.5 0 16.9s2.1-18.7 2.1-18.7 15.3-7.4 21.4-6.8c0 0-9.5 16.1-6.4 15.7s13.8-16.7 13.8-16.7 15.7-2.9 18.3 6.4c2.5 9.3-1.5 14-3.9 14.6-2.3.6-17.3.4-16.9 2.3s10.5 5.1 16.1 3.3c0 0-6.2 15.4-14.4 14.6s-10.7-5.8-15.7-6.2-8.7 1-6.2 2.3c2.5 1.4 11.1.4 15.2 3.9s7.4 5.6-.2 7.2-21.2.6-23.9-5.2-2.8-5.8-2.8-5.8z" fill="#25a58e"/><path d="m618 123.8s-40.8 13.2-45.5 28c0 0 .2 6.6-3.9 14.2v2.9s4.3-9.9 6.6-11.3c.1 0-9.1-12.9 42.8-33.8z" fill="#25a58e"/><path d="m568.7 165.9s-6.3 9.6-2.7 21.2l1.6-.4s-1.6-12.8 1.7-19.2c3.3-6.5-.6-1.6-.6-1.6z" fill="#25a58e"/><path d="m572.1 212.3c15.8 0 28.5-12.8 28.5-28.5h-57.1c0 15.8 12.8 28.5 28.6 28.5z" fill="#25a58e"/><path d="m579.1 212.1c-1.2.1-2.3.2-3.5.2-15.8 0-28.5-12.8-28.5-28.5h7.1c-.1 14.6 10.8 26.6 24.9 28.3z" fill="#27a691"/><path d="m542.6 183.8h58.7v.9h-58.7z" fill="#25a58e"/><path d="m56.8 72.5c-.7-1.2 14.1-5.7 14.4 6.6 0 0 27.7-.7 14.4-16.1-4.6-5.3-4.1-9.8-4-13.9s-2.8-16-13.1-14.8c0 0-2.7-1.1-6 .7-7.6 3.9-24.6 42.1-5.7 37.5z" fill="#163660"/><path d="m102 86.3s1.8-2.7 3.2-2.8 4.1-.8 3.9-.3-1.9.6-2 .9c-.2.3 2.5.8 3.2.9s2.5 0 2.5.4c-.1.4-3.2 1.9-5.4 1.7s-5 .6-5 .6z" fill="#f3b36d"/><path d="m76 87.2s1 1.9 2.8 4.2c2.1 2.7 5.4 5.8 9.6 6.4 2 .3 3.9-.1 5.7-.9 5-2.2 8.8-7.4 8.8-7.4.9-2.4-.6-4.1-.6-4.1s-10.2 2.3-11.1 1.8-6.6-16.7-7.9-18.8-5.9-3.1-5.9-3.1z" fill="#b3cfe4"/><path d="m78.7 91.4c2.1 2.7 5.4 5.8 9.6 6.4 2 .3 3.9-.1 5.7-.9-.2 0-5.2.7-7.2-2.9-2-3.7-4.2-9.5-7.3-7.5-1.3.7-1.3 2.8-.8 4.9z" fill="#97b9d8"/><path d="m38.1 196.8s-3.1 2.8-2.5 4.8 3.4 3.4 3.8 5.8 1.9 3.8 3.2 3.8 6.5 0 6.5 0 1-1.7-1.4-2.2-3.3-3.4-3.2-6.1-.2-6.2-.2-6.2l-5.1-1.2z" fill="#213862"/><path d="m64.3 198s-1.1 12 .2 12.6h17.4s0-2-2.8-2.5c-2.8-.4-7.7-2.1-8.5-5.7s-6.3-4.4-6.3-4.4z" fill="#213862"/><path d="m51.9 112.1c3.6-8 5.8-10.3 5.4-12.8-.3-1.9 1-34.6 1-34.6.4-.1 1.3-.2 1.7-.3 1.5-.3 2.7-1.4 3.2-2.8.6-1.7 1.1-4.2 1.1-7.4l.5.1 7.7 1.5s-.2 2.4-.2 4.7v.1c0 2 1.3 3.7 3.2 4.3 1 .3 1.8.5 1.8.5s2.8 8.1 3.4 16.4c.5 8.3-7.3 12.7-2.1 29.3 5.2 16.9-28.7 5.4-26.7 1z" fill="#f3b36d"/><path d="m72.4 55.7s-.2 2.4-.2 4.7c-4.3-.1-6.6-4.1-7.5-6.2z" fill="#e7945b"/><path d="m73.9 57.9s-10.2.2-10.2-6.2-1.3-10.6 5.2-11 7.8 2 8.3 4.2-.7 12.8-3.3 13z" fill="#f3b36d"/><path d="m73.5 40.5s-2.8 7.5-7.1 8.6-6.2 0-6.2 0 3.3-2.6 4-7.2c0 0 7.2-4.9 9.3-1.4z" fill="#163660"/><path d="m72.8 41.1s2.1.8 2.9 2.3 1.6 3.4 1.4 5.8c0 0 2.1-5.1-.3-8-2.5-2.9-4-.1-4-.1z" fill="#163660"/><path d="m71.6 53.9s.7.9 2.1.9c1.1 0 1.6-1 1.6-1s-2.1-.6-3.7.1z" fill="#edf1f2"/><path d="m50.9 79.1s-.3 3.7 0 8.1c.2 2.9 3.1 6.8 3.5 7.8 1 2.4 2.2 2.8 2.2 2.8l9.1 2.2 3.2.8 10.1-3s4.6-12.9 2.8-20.1c-1.8-7.3-4.7-12.3-4.7-12.3s-8.3 8.1-19-.7z" fill="#b3cfe4"/><path d="m53.6 88.3c.2 2.9.4 5.6.9 6.6 1 2.4 2.2 2.8 2.2 2.8l9.1 2.2 4-1.2s-13.3-2-11.8-13.4z" fill="#eca"/><path d="m78.5 99.7s1.6 16 2 21.3-6.2 75.2-6.6 77.7c-.4 2.3-3.2 3.8-3.2 3.8s-1.3.8-3.2.2c-2.6-.7-3.4-1.6-3.4-1.6s-3.9-50.1-1.5-68 2.5-33.4 2.5-33.4z" fill="#d86239"/><path d="m57.3 99.2s-7.7 10.3-8.4 17.2 3.1 32.8 1.6 39.6-11.4 18.4-11.4 39.5c0 0 .6 1.2 2.4 1.9.6.2 1.3.4 2.1.6 1.5.3 3-.4 3.7-1.7 3.8-7.6 15.8-32.1 16.4-37.2.4-3.6 1.5-28.9 9.8-42.9 2-3.4 1.5-15.2 1.5-15.2z" fill="#f2753d"/><path d="m71.9 54.1s.2.8 2 .6c0 0 1.6-.1 1.5-.9 0 0-1.5-.6-3.5.3z" fill="#fff"/><path d="m79.3 97.3s-2 1.6-6 1.7c-4.8.1-16.6-1.2-16.6-1.2s-.5 1.5-.5 3c0 0 14.5 3.7 22.9.5 0 0 1-2 .2-4z" fill="#213862"/><path d="m72.3 100.6c0-1.4 1-2.5 2.2-2.5s2.2 1.1 2.2 2.5-1 2.5-2.2 2.5-2.2-1.1-2.2-2.5z" fill="#fff"/><path d="m41.1 100.1 14.8 12.9 20.2-23.6-14.9-12.9z" fill="#b5453c"/><path d="m60 100.2s5.4.6 5.4 1.9-1.3 3.9-2 4.1c-.7.1-4.4-3.6-4.4-3.6z" fill="#f3b36d"/><path d="m58.2 64.6s-7.2.5-10 7.3-8.1 18.1-8.1 20 3 7.8 18.8 11.2c0 0 1.6-1.7 1.5-3.1 0 0-9.9-8.5-9.8-9.5 0-1.9 1.6-4.3 10.3-13 2.3-2.4-2.7-12.9-2.7-12.9z" fill="#b3cfe4"/><path d="m108.1 139.9s-3-3.5-.2-5.7c0 0 2.1-1.2 3.7-1.1 0 0-2.4 4-1.6 4.4s2.3-4.6 2.3-4.6 4.7-.4 6.2.3c0 0-4 3.3-3.2 3.5s5.2-3 5.2-3 4.3.7 4.1 3.4-1.7 3.5-2.4 3.4-4.5-1.5-4.6-1 2.2 2.3 3.9 2.4c0 0-3.1 3.4-5.1 2.4s-2.2-2.5-3.5-3.1-2.4-.6-1.8 0 2.8 1.2 3.6 2.5c.7 1.3 1.4 2.1-.7 1.8s-5.5-1.9-5.7-3.6c-.2-2-.2-2-.2-2z" fill="#25a486"/><path d="m122.5 137s-11.8-.5-14.4 2.9c0 0-.6 1.7-2.4 3.3l-.3.8s2.1-2.2 2.8-2.3c0 0-1.1-4.2 14.3-4.7z" fill="#25a486"/><path d="m105.7 143.2s-2.5 1.9-2.7 5.2h.5s.8-3.5 2.3-4.8c1.4-1.3-.1-.4-.1-.4z" fill="#25a58e"/><path d="m97.6 135.5s4.8-2.7 2.6-6.3c0 0-1.8-2.2-3.7-2.8 0 0 1 5.4 0 5.5s-.7-6.1-.7-6.1-5-2.4-7-2.2c0 0 3.1 5.3 2.1 5.2s-4.5-5.5-4.5-5.5-5.2-.9-6 2.1.5 4.6 1.3 4.8 5.7.1 5.5.8c-.1.6-3.4 1.6-5.3 1.1 0 0 2 5 4.7 4.8s3.5-1.9 5.2-2 2.9.3 2 .8c-.8.4-3.6.1-5 1.3-1.3 1.1-2.4 1.8.1 2.3s6.9.2 7.8-1.7c.9-2.1.9-2.1.9-2.1z" fill="#25a486"/><path d="m82.7 126.3s13.4 4.3 14.9 9.2c0 0-.1 2.2 1.3 4.6v.9s-1.4-3.2-2.2-3.7c0 .1 3-4.1-14-11z" fill="#25a486"/><path d="m98.9 140.1s2.1 3.1.9 6.9l-.5-.1s.5-4.2-.6-6.3.2-.5.2-.5z" fill="#25a486"/><path d="m105.2 131.8s-6.3-3.5-3.4-8.3c0 0 2.3-2.9 4.9-3.7 0 0-1.3 7.1 0 7.3s.9-8.1.9-8.1 6.6-3.2 9.2-2.9c0 0-4.1 7-2.8 6.8s6-7.2 6-7.2 6.8-1.3 7.9 2.8c1.1 4-.7 6-1.7 6.3s-7.5.2-7.3 1 4.5 2.2 7 1.4c0 0-2.7 6.6-6.2 6.3s-4.6-2.5-6.8-2.7-3.8.4-2.7 1 4.8.2 6.5 1.7 3.2 2.4-.1 3.1-9.1.2-10.3-2.3-1.1-2.5-1.1-2.5z" fill="#25a58e"/><path d="m124.8 119.7s-17.6 5.7-19.6 12.1c0 0 .1 2.9-1.7 6.1v1.3s1.8-4.3 2.8-4.9c.1 0-3.9-5.5 18.5-14.6z" fill="#25a58e"/><path d="m103.5 137.9s-2.7 4.1-1.2 9.1l.7-.2s-.7-5.5.7-8.3c1.5-2.7-.2-.6-.2-.6z" fill="#25a58e"/><path d="m105 158c6.8 0 12.3-5.5 12.3-12.3h-24.6c0 6.7 5.5 12.3 12.3 12.3z" fill="#25a58e"/><path d="m108 157.9c-.5.1-1 .1-1.5.1-6.8 0-12.3-5.5-12.3-12.3h3.1c-.1 6.2 4.6 11.4 10.7 12.2z" fill="#27a691"/><path d="m92.2 145.6h25.3v.4h-25.3z" fill="#25a58e"/><path d="m484.6 60.1s11.2.8 13.9 6.8 3.5 25.9.1 31.8c0 0 5.3 17.8-3 16.3-.1 0-1.9-1-2-1 0 0-5.4-5.7-3-7 0 0 0-16 .7-18.3.6-2.3-6.7-28.6-6.7-28.6z" fill="#f2753d"/><path d="m0 212h634" fill="none" stroke="#26a58e" stroke-linecap="round" stroke-miterlimit="10" stroke-width="2.8346"/><path d="m498.2 118.8-7.8-1.7c-.5-.1-.9-.7-.8-1.2s.6-.9 1.2-.8l7.8 1.7c.5.1.9.7.8 1.2-.1.6-.6.9-1.2.8z" fill="#d86239"/></svg>